<svg width="219" height="74" viewBox="0 0 219 74" fill="none" xmlns="http://www.w3.org/2000/svg">
<rect x="3" y="3" width="213" height="68" rx="3" stroke="black" stroke-width="5"/>
<path d="M32.0698 38.784C32.0698 39.296 32.0378 39.8293 31.9738 40.384H19.5898C19.6751 41.4933 20.0271 42.3467 20.6458 42.944C21.2858 43.52 22.0644 43.808 22.9818 43.808C24.3471 43.808 25.2964 43.232 25.8298 42.08H31.6538C31.3551 43.2533 30.8111 44.3093 30.0218 45.248C29.2538 46.1867 28.2831 46.9227 27.1098 47.456C25.9364 47.9893 24.6244 48.256 23.1738 48.256C21.4244 48.256 19.8671 47.8827 18.5018 47.136C17.1364 46.3893 16.0698 45.3227 15.3018 43.936C14.5338 42.5493 14.1498 40.928 14.1498 39.072C14.1498 37.216 14.5231 35.5947 15.2698 34.208C16.0378 32.8213 17.1044 31.7547 18.4698 31.008C19.8351 30.2613 21.4031 29.888 23.1738 29.888C24.9018 29.888 26.4378 30.2507 27.7818 30.976C29.1258 31.7013 30.1711 32.736 30.9178 34.08C31.6858 35.424 32.0698 36.992 32.0698 38.784ZM26.4698 37.344C26.4698 36.4053 26.1498 35.6587 25.5098 35.104C24.8698 34.5493 24.0698 34.272 23.1098 34.272C22.1924 34.272 21.4138 34.5387 20.7738 35.072C20.1551 35.6053 19.7711 36.3627 19.6218 37.344H26.4698ZM34.9885 36.736C34.9885 34.5173 35.4685 32.544 36.4285 30.816C37.3885 29.0667 38.7218 27.712 40.4285 26.752C42.1565 25.7707 44.1085 25.28 46.2845 25.28C48.9512 25.28 51.2338 25.984 53.1325 27.392C55.0312 28.8 56.3005 30.72 56.9405 33.152H50.9245C50.4765 32.2133 49.8365 31.4987 49.0045 31.008C48.1938 30.5173 47.2658 30.272 46.2205 30.272C44.5352 30.272 43.1698 30.8587 42.1245 32.032C41.0792 33.2053 40.5565 34.7733 40.5565 36.736C40.5565 38.6987 41.0792 40.2667 42.1245 41.44C43.1698 42.6133 44.5352 43.2 46.2205 43.2C47.2658 43.2 48.1938 42.9547 49.0045 42.464C49.8365 41.9733 50.4765 41.2587 50.9245 40.32H56.9405C56.3005 42.752 55.0312 44.672 53.1325 46.08C51.2338 47.4667 48.9512 48.16 46.2845 48.16C44.1085 48.16 42.1565 47.68 40.4285 46.72C38.7218 45.7387 37.3885 44.384 36.4285 42.656C35.4685 40.928 34.9885 38.9547 34.9885 36.736ZM69.3795 48.256C67.6302 48.256 66.0515 47.8827 64.6435 47.136C63.2568 46.3893 62.1582 45.3227 61.3475 43.936C60.5582 42.5493 60.1635 40.928 60.1635 39.072C60.1635 37.2373 60.5688 35.6267 61.3795 34.24C62.1902 32.832 63.2995 31.7547 64.7075 31.008C66.1155 30.2613 67.6942 29.888 69.4435 29.888C71.1928 29.888 72.7715 30.2613 74.1795 31.008C75.5875 31.7547 76.6968 32.832 77.5075 34.24C78.3182 35.6267 78.7235 37.2373 78.7235 39.072C78.7235 40.9067 78.3075 42.528 77.4755 43.936C76.6648 45.3227 75.5448 46.3893 74.1155 47.136C72.7075 47.8827 71.1288 48.256 69.3795 48.256ZM69.3795 43.52C70.4248 43.52 71.3102 43.136 72.0355 42.368C72.7822 41.6 73.1555 40.5013 73.1555 39.072C73.1555 37.6427 72.7928 36.544 72.0675 35.776C71.3635 35.008 70.4888 34.624 69.4435 34.624C68.3768 34.624 67.4915 35.008 66.7875 35.776C66.0835 36.5227 65.7315 37.6213 65.7315 39.072C65.7315 40.5013 66.0728 41.6 66.7555 42.368C67.4595 43.136 68.3342 43.52 69.3795 43.52ZM105.371 29.952C107.589 29.952 109.349 30.624 110.651 31.968C111.973 33.312 112.635 35.1787 112.635 37.568V48H107.195V38.304C107.195 37.152 106.885 36.2667 106.267 35.648C105.669 35.008 104.837 34.688 103.771 34.688C102.704 34.688 101.861 35.008 101.243 35.648C100.645 36.2667 100.347 37.152 100.347 38.304V48H94.9065V38.304C94.9065 37.152 94.5972 36.2667 93.9785 35.648C93.3812 35.008 92.5492 34.688 91.4825 34.688C90.4158 34.688 89.5732 35.008 88.9545 35.648C88.3572 36.2667 88.0585 37.152 88.0585 38.304V48H82.5865V30.144H88.0585V32.384C88.6132 31.6373 89.3385 31.0507 90.2345 30.624C91.1305 30.176 92.1438 29.952 93.2745 29.952C94.6185 29.952 95.8132 30.24 96.8585 30.816C97.9252 31.392 98.7572 32.2133 99.3545 33.28C99.9732 32.2987 100.816 31.4987 101.883 30.88C102.949 30.2613 104.112 29.952 105.371 29.952ZM125.55 48.224C123.907 48.224 122.435 47.9573 121.134 47.424C119.832 46.8907 118.787 46.1013 117.998 45.056C117.23 44.0107 116.824 42.752 116.782 41.28H122.606C122.691 42.112 122.979 42.752 123.47 43.2C123.96 43.6267 124.6 43.84 125.39 43.84C126.2 43.84 126.84 43.6587 127.31 43.296C127.779 42.912 128.014 42.3893 128.014 41.728C128.014 41.1733 127.822 40.7147 127.438 40.352C127.075 39.9893 126.616 39.6907 126.062 39.456C125.528 39.2213 124.76 38.9547 123.758 38.656C122.307 38.208 121.123 37.76 120.206 37.312C119.288 36.864 118.499 36.2027 117.838 35.328C117.176 34.4533 116.846 33.312 116.846 31.904C116.846 29.8133 117.603 28.1813 119.118 27.008C120.632 25.8133 122.606 25.216 125.038 25.216C127.512 25.216 129.507 25.8133 131.022 27.008C132.536 28.1813 133.347 29.824 133.454 31.936H127.534C127.491 31.2107 127.224 30.6453 126.734 30.24C126.243 29.8133 125.614 29.6 124.845 29.6C124.184 29.6 123.651 29.7813 123.246 30.144C122.84 30.4853 122.638 30.9867 122.638 31.648C122.638 32.3733 122.979 32.9387 123.661 33.344C124.344 33.7493 125.411 34.1867 126.862 34.656C128.312 35.1467 129.486 35.616 130.382 36.064C131.299 36.512 132.088 37.1627 132.75 38.016C133.411 38.8693 133.742 39.968 133.742 41.312C133.742 42.592 133.411 43.7547 132.75 44.8C132.11 45.8453 131.171 46.6773 129.934 47.296C128.696 47.9147 127.235 48.224 125.55 48.224ZM148.021 43.36V48H145.237C143.253 48 141.706 47.52 140.597 46.56C139.488 45.5787 138.933 43.9893 138.933 41.792V34.688H136.757V30.144H138.933V25.792H144.405V30.144H147.989V34.688H144.405V41.856C144.405 42.3893 144.533 42.7733 144.789 43.008C145.045 43.2427 145.472 43.36 146.069 43.36H148.021ZM160.157 48.256C158.408 48.256 156.829 47.8827 155.421 47.136C154.034 46.3893 152.936 45.3227 152.125 43.936C151.336 42.5493 150.941 40.928 150.941 39.072C150.941 37.2373 151.346 35.6267 152.157 34.24C152.968 32.832 154.077 31.7547 155.485 31.008C156.893 30.2613 158.472 29.888 160.221 29.888C161.97 29.888 163.549 30.2613 164.957 31.008C166.365 31.7547 167.474 32.832 168.285 34.24C169.096 35.6267 169.501 37.2373 169.501 39.072C169.501 40.9067 169.085 42.528 168.253 43.936C167.442 45.3227 166.322 46.3893 164.893 47.136C163.485 47.8827 161.906 48.256 160.157 48.256ZM160.157 43.52C161.202 43.52 162.088 43.136 162.813 42.368C163.56 41.6 163.933 40.5013 163.933 39.072C163.933 37.6427 163.57 36.544 162.845 35.776C162.141 35.008 161.266 34.624 160.221 34.624C159.154 34.624 158.269 35.008 157.565 35.776C156.861 36.5227 156.509 37.6213 156.509 39.072C156.509 40.5013 156.85 41.6 157.533 42.368C158.237 43.136 159.112 43.52 160.157 43.52ZM178.836 33.12C179.476 32.1387 180.276 31.3707 181.236 30.816C182.196 30.24 183.263 29.952 184.436 29.952V35.744H182.932C181.567 35.744 180.543 36.0427 179.86 36.64C179.177 37.216 178.836 38.24 178.836 39.712V48H173.364V30.144H178.836V33.12ZM204.843 38.784C204.843 39.296 204.811 39.8293 204.747 40.384H192.363C192.449 41.4933 192.801 42.3467 193.419 42.944C194.059 43.52 194.838 43.808 195.755 43.808C197.121 43.808 198.07 43.232 198.603 42.08H204.427C204.129 43.2533 203.585 44.3093 202.795 45.248C202.027 46.1867 201.057 46.9227 199.883 47.456C198.71 47.9893 197.398 48.256 195.947 48.256C194.198 48.256 192.641 47.8827 191.275 47.136C189.91 46.3893 188.843 45.3227 188.075 43.936C187.307 42.5493 186.923 40.928 186.923 39.072C186.923 37.216 187.297 35.5947 188.043 34.208C188.811 32.8213 189.878 31.7547 191.243 31.008C192.609 30.2613 194.177 29.888 195.947 29.888C197.675 29.888 199.211 30.2507 200.555 30.976C201.899 31.7013 202.945 32.736 203.691 34.08C204.459 35.424 204.843 36.992 204.843 38.784ZM199.243 37.344C199.243 36.4053 198.923 35.6587 198.283 35.104C197.643 34.5493 196.843 34.272 195.883 34.272C194.966 34.272 194.187 34.5387 193.547 35.072C192.929 35.6053 192.545 36.3627 192.395 37.344H199.243Z" fill="black"/>
</svg>
